# Blender v2.80 (sub 75) OBJ File: 'game.blend'
# www.blender.org
o malus_Cube.016
v 0.000000 0.216757 0.622354
v 0.000000 0.684950 0.622354
v -0.907194 0.216757 -0.622354
v -0.907194 0.684950 -0.622354
v 0.907194 0.216757 -0.622354
v 0.907194 0.684950 -0.622354
vt 0.000000 0.000000
vt 0.000000 0.000000
vt 0.000000 0.000000
vt 0.000000 0.000000
vt 0.000000 0.000000
vt 0.000000 0.000000
vn 0.0000 0.0000 -1.0000
vn 0.0000 -1.0000 0.0000
vn 0.0000 1.0000 0.0000
vn 0.8081 0.0000 0.5890
vn -0.8081 0.0000 0.5890
s off
f 6/1/1 3/2/1 4/3/1
f 3/2/2 5/4/2 1/5/2
f 2/6/3 6/1/3 4/3/3
f 6/1/4 1/5/4 5/4/4
f 1/5/5 4/3/5 3/2/5
f 6/1/1 5/4/1 3/2/1
f 6/1/4 2/6/4 1/5/4
f 1/5/5 2/6/5 4/3/5
