# Blender v2.80 (sub 75) OBJ File: ''
# www.blender.org
o Cube.001
v 2.000001 -0.005000 2.005000
v 2.000001 0.005000 2.005000
v -2.000001 -0.005000 2.005000
v -2.000001 0.005000 2.005000
v 2.000001 -0.005000 1.995000
v 2.000001 0.005000 1.995000
v -2.000001 -0.005000 1.995000
v -2.000001 0.005000 1.995000
v 2.000001 -0.005000 1.505000
v 2.000001 0.005000 1.505000
v -2.000001 -0.005000 1.505000
v -2.000001 0.005000 1.505000
v 2.000001 -0.005000 1.495000
v 2.000001 0.005000 1.495000
v -2.000001 -0.005000 1.495000
v -2.000001 0.005000 1.495000
v 2.000001 -0.005000 1.005000
v 2.000001 0.005000 1.005000
v -2.000001 -0.005000 1.005000
v -2.000001 0.005000 1.005000
v 2.000001 -0.005000 0.995000
v 2.000001 0.005000 0.995000
v -2.000001 -0.005000 0.995000
v -2.000001 0.005000 0.995000
v 2.000001 -0.005000 0.505000
v 2.000001 0.005000 0.505000
v -2.000001 -0.005000 0.505000
v -2.000001 0.005000 0.505000
v 2.000001 -0.005000 0.495000
v 2.000001 0.005000 0.495000
v -2.000001 -0.005000 0.495000
v -2.000001 0.005000 0.495000
v 2.000001 -0.005000 0.005000
v 2.000001 0.005000 0.005000
v -2.000001 -0.005000 0.005000
v -2.000001 0.005000 0.005000
v 2.000001 -0.005000 -0.005000
v 2.000001 0.005000 -0.005000
v -2.000001 -0.005000 -0.005000
v -2.000001 0.005000 -0.005000
v 2.000001 -0.005000 -0.495000
v 2.000001 0.005000 -0.495000
v -2.000001 -0.005000 -0.495000
v -2.000001 0.005000 -0.495000
v 2.000001 -0.005000 -0.505000
v 2.000001 0.005000 -0.505000
v -2.000001 -0.005000 -0.505000
v -2.000001 0.005000 -0.505000
v 2.000001 -0.005000 -0.995000
v 2.000001 0.005000 -0.995000
v -2.000001 -0.005000 -0.995000
v -2.000001 0.005000 -0.995000
v 2.000001 -0.005000 -1.005000
v 2.000001 0.005000 -1.005000
v -2.000001 -0.005000 -1.005000
v -2.000001 0.005000 -1.005000
v 2.000001 -0.005000 -1.495000
v 2.000001 0.005000 -1.495000
v -2.000001 -0.005000 -1.495000
v -2.000001 0.005000 -1.495000
v 2.000001 -0.005000 -1.505000
v 2.000001 0.005000 -1.505000
v -2.000001 -0.005000 -1.505000
v -2.000001 0.005000 -1.505000
v 2.000001 -0.005000 -1.995000
v 2.000001 0.005000 -1.995000
v -2.000001 -0.005000 -1.995000
v -2.000001 0.005000 -1.995000
v 2.000001 -0.005000 -2.005000
v 2.000001 0.005000 -2.005000
v -2.000001 -0.005000 -2.005000
v -2.000001 0.005000 -2.005000
v -2.005000 -0.005000 2.000001
v -2.005000 0.005000 2.000001
v -2.005000 -0.005000 -2.000001
v -2.005000 0.005000 -2.000001
v -1.995000 -0.005000 2.000001
v -1.995000 0.005000 2.000001
v -1.995000 -0.005000 -2.000001
v -1.995000 0.005000 -2.000001
v -1.505000 -0.005000 2.000001
v -1.505000 0.005000 2.000001
v -1.505000 -0.005000 -2.000001
v -1.505000 0.005000 -2.000001
v -1.495000 -0.005000 2.000001
v -1.495000 0.005000 2.000001
v -1.495000 -0.005000 -2.000001
v -1.495000 0.005000 -2.000001
v -1.005000 -0.005000 2.000001
v -1.005000 0.005000 2.000001
v -1.005000 -0.005000 -2.000001
v -1.005000 0.005000 -2.000001
v -0.995000 -0.005000 2.000001
v -0.995000 0.005000 2.000001
v -0.995000 -0.005000 -2.000001
v -0.995000 0.005000 -2.000001
v -0.505000 -0.005000 2.000001
v -0.505000 0.005000 2.000001
v -0.505000 -0.005000 -2.000001
v -0.505000 0.005000 -2.000001
v -0.495000 -0.005000 2.000001
v -0.495000 0.005000 2.000001
v -0.495000 -0.005000 -2.000001
v -0.495000 0.005000 -2.000001
v -0.005000 -0.005000 2.000001
v -0.005000 0.005000 2.000001
v -0.005000 -0.005000 -2.000001
v -0.005000 0.005000 -2.000001
v 0.005000 -0.005000 2.000001
v 0.005000 0.005000 2.000001
v 0.005000 -0.005000 -2.000001
v 0.005000 0.005000 -2.000001
v 0.495000 -0.005000 2.000001
v 0.495000 0.005000 2.000001
v 0.495000 -0.005000 -2.000001
v 0.495000 0.005000 -2.000001
v 0.505000 -0.005000 2.000001
v 0.505000 0.005000 2.000001
v 0.505000 -0.005000 -2.000001
v 0.505000 0.005000 -2.000001
v 0.995000 -0.005000 2.000001
v 0.995000 0.005000 2.000001
v 0.995000 -0.005000 -2.000001
v 0.995000 0.005000 -2.000001
v 1.005000 -0.005000 2.000001
v 1.005000 0.005000 2.000001
v 1.005000 -0.005000 -2.000001
v 1.005000 0.005000 -2.000001
v 1.495000 -0.005000 2.000001
v 1.495000 0.005000 2.000001
v 1.495000 -0.005000 -2.000001
v 1.495000 0.005000 -2.000001
v 1.505000 -0.005000 2.000001
v 1.505000 0.005000 2.000001
v 1.505000 -0.005000 -2.000001
v 1.505000 0.005000 -2.000001
v 1.995000 -0.005000 2.000001
v 1.995000 0.005000 2.000001
v 1.995000 -0.005000 -2.000001
v 1.995000 0.005000 -2.000001
v 2.005000 -0.005000 2.000001
v 2.005000 0.005000 2.000001
v 2.005000 -0.005000 -2.000001
v 2.005000 0.005000 -2.000001
vt 0.616450 1.000000
vt 0.602753 1.000000
vt 0.602752 0.000000
vt 0.616450 0.000000
vt 0.986302 0.042500
vt 0.986302 0.040000
vt 1.000000 0.040000
vt 1.000000 0.042500
vt 0.027399 1.000000
vt 0.013701 1.000000
vt 0.013700 0.000000
vt 0.027397 0.000000
vt 0.986302 0.045000
vt 0.986302 0.042500
vt 1.000000 0.042500
vt 1.000000 0.045000
vt 0.808227 0.000000
vt 0.821925 0.000000
vt 0.821924 1.000000
vt 0.808227 1.000000
vt 0.808226 1.000000
vt 0.794528 1.000000
vt 0.794529 0.000000
vt 0.808227 0.000000
vt 0.479465 1.000000
vt 0.465767 1.000000
vt 0.465766 0.000000
vt 0.479464 0.000000
vt 1.000000 0.040000
vt 0.986302 0.040000
vt 0.986302 0.037500
vt 1.000000 0.037500
vt 0.013700 1.000000
vt 0.000002 1.000000
vt 0.000000 0.000000
vt 0.013698 0.000000
vt 0.986302 0.065000
vt 0.986302 0.062500
vt 1.000000 0.062500
vt 1.000000 0.065000
vt 0.726037 0.000000
vt 0.739735 0.000000
vt 0.739735 1.000000
vt 0.726037 1.000000
vt 0.712338 1.000000
vt 0.698640 1.000000
vt 0.698641 0.000000
vt 0.712339 0.000000
vt 0.794528 1.000000
vt 0.780831 1.000000
vt 0.780830 0.000000
vt 0.794528 0.000000
vt 0.986302 0.060000
vt 0.986302 0.057500
vt 1.000000 0.057500
vt 1.000000 0.060000
vt 0.041099 1.000000
vt 0.027401 1.000000
vt 0.027399 0.000000
vt 0.041097 0.000000
vt 0.986302 0.077500
vt 0.986302 0.075000
vt 1.000000 0.075000
vt 1.000000 0.077500
vt 0.712339 0.000000
vt 0.726037 0.000000
vt 0.726037 1.000000
vt 0.712339 1.000000
vt 0.698640 1.000000
vt 0.684942 1.000000
vt 0.684943 0.000000
vt 0.698640 0.000000
vt 0.657545 1.000000
vt 0.643848 1.000000
vt 0.643847 0.000000
vt 0.657545 0.000000
vt 0.986302 0.087500
vt 0.986302 0.085000
vt 1.000000 0.085000
vt 1.000000 0.087500
vt 0.082196 1.000000
vt 0.068498 1.000000
vt 0.068497 0.000000
vt 0.082195 0.000000
vt 0.986302 0.082500
vt 0.986302 0.080000
vt 1.000000 0.080000
vt 1.000000 0.082500
vt 0.835623 0.000000
vt 0.849321 0.000000
vt 0.849321 1.000000
vt 0.835623 1.000000
vt 0.835623 1.000000
vt 0.821925 1.000000
vt 0.821925 0.000000
vt 0.835623 0.000000
vt 0.876718 1.000000
vt 0.863020 1.000000
vt 0.863019 0.000000
vt 0.876717 0.000000
vt 0.986302 0.037500
vt 0.986302 0.035001
vt 1.000000 0.035001
vt 1.000000 0.037500
vt 0.068497 1.000000
vt 0.054799 1.000000
vt 0.054798 0.000000
vt 0.068495 0.000000
vt 0.986302 0.072500
vt 0.986302 0.070000
vt 1.000000 0.070000
vt 1.000000 0.072500
vt 0.328778 0.000000
vt 0.342476 0.000000
vt 0.342477 1.000000
vt 0.328779 1.000000
vt 0.287681 1.000000
vt 0.273983 1.000000
vt 0.273982 0.000000
vt 0.287681 0.000000
vt 0.643847 1.000000
vt 0.630149 1.000000
vt 0.630149 0.000000
vt 0.643847 0.000000
vt 0.986302 0.015000
vt 0.986302 0.012500
vt 1.000000 0.012500
vt 1.000000 0.015000
vt 0.054798 1.000000
vt 0.041100 1.000000
vt 0.041099 0.000000
vt 0.054796 0.000000
vt 0.986302 0.020000
vt 0.986302 0.017500
vt 1.000000 0.017500
vt 1.000000 0.020000
vt 0.369874 0.000000
vt 0.383573 0.000000
vt 0.383573 1.000000
vt 0.369875 1.000000
vt 0.328778 1.000000
vt 0.315080 1.000000
vt 0.315079 0.000000
vt 0.328777 0.000000
vt 0.630149 1.000000
vt 0.616451 1.000000
vt 0.616450 0.000000
vt 0.630148 0.000000
vt 0.986302 0.062500
vt 0.986302 0.060000
vt 1.000000 0.060000
vt 1.000000 0.062500
vt 0.986302 1.000000
vt 0.972604 1.000000
vt 0.972604 0.000000
vt 0.986301 0.000000
vt 0.986302 0.070000
vt 0.986302 0.067500
vt 1.000000 0.067500
vt 1.000000 0.070000
vt 0.356175 0.000000
vt 0.369874 0.000000
vt 0.369874 1.000000
vt 0.356176 1.000000
vt 0.315079 1.000000
vt 0.301381 1.000000
vt 0.301380 0.000000
vt 0.315078 0.000000
vt 0.958906 1.000000
vt 0.945208 1.000000
vt 0.945208 0.000000
vt 0.958906 0.000000
vt 0.986302 0.032500
vt 0.986302 0.030001
vt 1.000000 0.030001
vt 1.000000 0.032500
vt 0.972604 1.000000
vt 0.958906 1.000000
vt 0.958906 0.000000
vt 0.972604 0.000000
vt 0.986302 0.017500
vt 0.986302 0.015000
vt 1.000000 0.015000
vt 1.000000 0.017500
vt 0.342477 0.000000
vt 0.356175 0.000000
vt 0.356175 1.000000
vt 0.342477 1.000000
vt 0.301380 1.000000
vt 0.287682 1.000000
vt 0.287681 0.000000
vt 0.301379 0.000000
vt 0.945208 1.000000
vt 0.931510 1.000000
vt 0.931510 0.000000
vt 0.945208 0.000000
vt 0.986302 0.075000
vt 0.986302 0.072500
vt 1.000000 0.072500
vt 1.000000 0.075000
vt 0.534259 1.000000
vt 0.520561 1.000000
vt 0.520561 0.000000
vt 0.534259 0.000000
vt 0.986302 0.067500
vt 0.986302 0.065000
vt 1.000000 0.065000
vt 1.000000 0.067500
vt 0.575355 0.000000
vt 0.589054 0.000000
vt 0.589054 1.000000
vt 0.575356 1.000000
vt 0.561657 1.000000
vt 0.547959 1.000000
vt 0.547958 0.000000
vt 0.561657 0.000000
vt 0.273982 1.000000
vt 0.260284 1.000000
vt 0.260283 0.000000
vt 0.273981 0.000000
vt 1.000000 0.027500
vt 0.986302 0.027500
vt 0.986302 0.025000
vt 1.000000 0.025000
vt 0.917812 1.000000
vt 0.904114 1.000000
vt 0.904114 0.000000
vt 0.917812 0.000000
vt 1.000000 0.090000
vt 0.986302 0.090000
vt 0.986302 0.087500
vt 1.000000 0.087500
vt 0.205488 1.000000
vt 0.191790 1.000000
vt 0.191789 0.000000
vt 0.205486 0.000000
vt 0.397272 0.000000
vt 0.410970 0.000000
vt 0.410971 1.000000
vt 0.397273 1.000000
vt 0.520561 1.000000
vt 0.506863 1.000000
vt 0.506862 0.000000
vt 0.520560 0.000000
vt 1.000000 0.080000
vt 0.986302 0.080000
vt 0.986302 0.077500
vt 1.000000 0.077500
vt 0.904114 1.000000
vt 0.890416 1.000000
vt 0.890416 0.000000
vt 0.904113 0.000000
vt 1.000000 0.050000
vt 0.986302 0.050000
vt 0.986302 0.047500
vt 1.000000 0.047500
vt 0.534259 0.000000
vt 0.547957 0.000000
vt 0.547958 1.000000
vt 0.534260 1.000000
vt 0.383573 0.000000
vt 0.397271 0.000000
vt 0.397272 1.000000
vt 0.383574 1.000000
vt 0.452067 1.000000
vt 0.438370 1.000000
vt 0.438369 0.000000
vt 0.452066 0.000000
vt 1.000000 0.022500
vt 0.986302 0.022500
vt 0.986302 0.020000
vt 1.000000 0.020000
vt 0.863019 1.000000
vt 0.849322 1.000000
vt 0.849321 0.000000
vt 0.863019 0.000000
vt 1.000000 0.085000
vt 0.986302 0.085000
vt 0.986302 0.082500
vt 1.000000 0.082500
vt 0.561657 0.000000
vt 0.575354 0.000000
vt 0.575355 1.000000
vt 0.561657 1.000000
vt 0.219187 0.000000
vt 0.232885 0.000000
vt 0.232886 1.000000
vt 0.219188 1.000000
vt 0.246585 1.000000
vt 0.232887 1.000000
vt 0.232886 0.000000
vt 0.246584 0.000000
vt 1.000000 0.055000
vt 0.986302 0.055000
vt 0.986302 0.052500
vt 1.000000 0.052500
vt 0.671244 1.000000
vt 0.657546 1.000000
vt 0.657546 0.000000
vt 0.671243 0.000000
vt 1.000000 0.047500
vt 0.986302 0.047500
vt 0.986302 0.045000
vt 1.000000 0.045000
vt 0.589054 0.000000
vt 0.602751 0.000000
vt 0.602752 1.000000
vt 0.589054 1.000000
vt 0.082196 0.000000
vt 0.095894 0.000000
vt 0.095895 1.000000
vt 0.082197 1.000000
vt 0.424670 1.000000
vt 0.410972 1.000000
vt 0.410971 0.000000
vt 0.424669 0.000000
vt 1.000000 0.057500
vt 0.986302 0.057500
vt 0.986302 0.055000
vt 1.000000 0.055000
vt 0.684942 1.000000
vt 0.671244 1.000000
vt 0.671244 0.000000
vt 0.684942 0.000000
vt 1.000000 0.005000
vt 0.986302 0.005000
vt 0.986302 0.002500
vt 1.000000 0.002500
vt 0.452067 0.000000
vt 0.465765 0.000000
vt 0.465766 1.000000
vt 0.452068 1.000000
vt 0.136993 0.000000
vt 0.150691 0.000000
vt 0.150692 1.000000
vt 0.136994 1.000000
vt 0.260284 1.000000
vt 0.246586 1.000000
vt 0.246585 0.000000
vt 0.260283 0.000000
vt 1.000000 0.012500
vt 0.986302 0.012500
vt 0.986302 0.010000
vt 1.000000 0.010000
vt 0.780830 1.000000
vt 0.767132 1.000000
vt 0.767132 0.000000
vt 0.780830 0.000000
vt 1.000000 0.010000
vt 0.986302 0.010000
vt 0.986302 0.007500
vt 1.000000 0.007500
vt 0.123294 0.000000
vt 0.136992 0.000000
vt 0.136993 1.000000
vt 0.123294 1.000000
vt 0.095895 0.000000
vt 0.109594 0.000000
vt 0.109594 1.000000
vt 0.095896 1.000000
vt 0.438369 1.000000
vt 0.424671 1.000000
vt 0.424670 0.000000
vt 0.438368 0.000000
vt 1.000000 0.035001
vt 0.986302 0.035001
vt 0.986302 0.032500
vt 1.000000 0.032500
vt 0.767132 1.000000
vt 0.753434 1.000000
vt 0.753434 0.000000
vt 0.767131 0.000000
vt 1.000000 0.030001
vt 0.986302 0.030001
vt 0.986302 0.027500
vt 1.000000 0.027500
vt 0.109594 0.000000
vt 0.123293 0.000000
vt 0.123294 1.000000
vt 0.109595 1.000000
vt 0.178090 0.000000
vt 0.191788 0.000000
vt 0.191789 1.000000
vt 0.178091 1.000000
vt 0.506862 1.000000
vt 0.493164 1.000000
vt 0.493164 0.000000
vt 0.506861 0.000000
vt 1.000000 0.002500
vt 0.986302 0.002500
vt 0.986302 0.000000
vt 1.000000 0.000000
vt 0.890416 1.000000
vt 0.876718 1.000000
vt 0.876718 0.000000
vt 0.890415 0.000000
vt 1.000000 0.007500
vt 0.986302 0.007500
vt 0.986302 0.005000
vt 1.000000 0.005000
vt 0.205488 0.000000
vt 0.219186 0.000000
vt 0.219187 1.000000
vt 0.205489 1.000000
vt 0.164391 0.000000
vt 0.178089 0.000000
vt 0.178090 1.000000
vt 0.164392 1.000000
vt 0.493164 1.000000
vt 0.479466 1.000000
vt 0.479465 0.000000
vt 0.493163 0.000000
vt 1.000000 0.025000
vt 0.986302 0.025000
vt 0.986302 0.022500
vt 1.000000 0.022500
vt 0.753434 1.000000
vt 0.739736 1.000000
vt 0.739735 0.000000
vt 0.753433 0.000000
vt 1.000000 0.052500
vt 0.986302 0.052500
vt 0.986302 0.050000
vt 1.000000 0.050000
vt 0.931510 1.000000
vt 0.917812 1.000000
vt 0.917812 0.000000
vt 0.931510 0.000000
vt 0.150692 0.000000
vt 0.164390 0.000000
vt 0.164391 1.000000
vt 0.150693 1.000000
vn 0.0000 0.0000 1.0000
vn -1.0000 0.0000 0.0000
vn -0.0000 0.0000 -1.0000
vn 1.0000 0.0000 0.0000
vn 0.0000 -1.0000 0.0000
vn 0.0000 1.0000 0.0000
s off
f 1/1/1 2/2/1 4/3/1 3/4/1
f 3/5/2 4/6/2 8/7/2 7/8/2
f 7/9/3 8/10/3 6/11/3 5/12/3
f 5/13/4 6/14/4 2/15/4 1/16/4
f 3/17/5 7/18/5 5/19/5 1/20/5
f 8/21/6 4/22/6 2/23/6 6/24/6
f 9/25/1 10/26/1 12/27/1 11/28/1
f 11/29/2 12/30/2 16/31/2 15/32/2
f 15/33/3 16/34/3 14/35/3 13/36/3
f 13/37/4 14/38/4 10/39/4 9/40/4
f 11/41/5 15/42/5 13/43/5 9/44/5
f 16/45/6 12/46/6 10/47/6 14/48/6
f 17/49/1 18/50/1 20/51/1 19/52/1
f 19/53/2 20/54/2 24/55/2 23/56/2
f 23/57/3 24/58/3 22/59/3 21/60/3
f 21/61/4 22/62/4 18/63/4 17/64/4
f 19/65/5 23/66/5 21/67/5 17/68/5
f 24/69/6 20/70/6 18/71/6 22/72/6
f 25/73/1 26/74/1 28/75/1 27/76/1
f 27/77/2 28/78/2 32/79/2 31/80/2
f 31/81/3 32/82/3 30/83/3 29/84/3
f 29/85/4 30/86/4 26/87/4 25/88/4
f 27/89/5 31/90/5 29/91/5 25/92/5
f 32/93/6 28/94/6 26/95/6 30/96/6
f 33/97/1 34/98/1 36/99/1 35/100/1
f 35/101/2 36/102/2 40/103/2 39/104/2
f 39/105/3 40/106/3 38/107/3 37/108/3
f 37/109/4 38/110/4 34/111/4 33/112/4
f 35/113/5 39/114/5 37/115/5 33/116/5
f 40/117/6 36/118/6 34/119/6 38/120/6
f 41/121/1 42/122/1 44/123/1 43/124/1
f 43/125/2 44/126/2 48/127/2 47/128/2
f 47/129/3 48/130/3 46/131/3 45/132/3
f 45/133/4 46/134/4 42/135/4 41/136/4
f 43/137/5 47/138/5 45/139/5 41/140/5
f 48/141/6 44/142/6 42/143/6 46/144/6
f 49/145/1 50/146/1 52/147/1 51/148/1
f 51/149/2 52/150/2 56/151/2 55/152/2
f 55/153/3 56/154/3 54/155/3 53/156/3
f 53/157/4 54/158/4 50/159/4 49/160/4
f 51/161/5 55/162/5 53/163/5 49/164/5
f 56/165/6 52/166/6 50/167/6 54/168/6
f 57/169/1 58/170/1 60/171/1 59/172/1
f 59/173/2 60/174/2 64/175/2 63/176/2
f 63/177/3 64/178/3 62/179/3 61/180/3
f 61/181/4 62/182/4 58/183/4 57/184/4
f 59/185/5 63/186/5 61/187/5 57/188/5
f 64/189/6 60/190/6 58/191/6 62/192/6
f 65/193/1 66/194/1 68/195/1 67/196/1
f 67/197/2 68/198/2 72/199/2 71/200/2
f 71/201/3 72/202/3 70/203/3 69/204/3
f 69/205/4 70/206/4 66/207/4 65/208/4
f 67/209/5 71/210/5 69/211/5 65/212/5
f 72/213/6 68/214/6 66/215/6 70/216/6
f 73/217/2 74/218/2 76/219/2 75/220/2
f 75/221/3 76/222/3 80/223/3 79/224/3
f 79/225/4 80/226/4 78/227/4 77/228/4
f 77/229/1 78/230/1 74/231/1 73/232/1
f 75/233/5 79/234/5 77/235/5 73/236/5
f 80/237/6 76/238/6 74/239/6 78/240/6
f 81/241/2 82/242/2 84/243/2 83/244/2
f 83/245/3 84/246/3 88/247/3 87/248/3
f 87/249/4 88/250/4 86/251/4 85/252/4
f 85/253/1 86/254/1 82/255/1 81/256/1
f 83/257/5 87/258/5 85/259/5 81/260/5
f 88/261/6 84/262/6 82/263/6 86/264/6
f 89/265/2 90/266/2 92/267/2 91/268/2
f 91/269/3 92/270/3 96/271/3 95/272/3
f 95/273/4 96/274/4 94/275/4 93/276/4
f 93/277/1 94/278/1 90/279/1 89/280/1
f 91/281/5 95/282/5 93/283/5 89/284/5
f 96/285/6 92/286/6 90/287/6 94/288/6
f 97/289/2 98/290/2 100/291/2 99/292/2
f 99/293/3 100/294/3 104/295/3 103/296/3
f 103/297/4 104/298/4 102/299/4 101/300/4
f 101/301/1 102/302/1 98/303/1 97/304/1
f 99/305/5 103/306/5 101/307/5 97/308/5
f 104/309/6 100/310/6 98/311/6 102/312/6
f 105/313/2 106/314/2 108/315/2 107/316/2
f 107/317/3 108/318/3 112/319/3 111/320/3
f 111/321/4 112/322/4 110/323/4 109/324/4
f 109/325/1 110/326/1 106/327/1 105/328/1
f 107/329/5 111/330/5 109/331/5 105/332/5
f 112/333/6 108/334/6 106/335/6 110/336/6
f 113/337/2 114/338/2 116/339/2 115/340/2
f 115/341/3 116/342/3 120/343/3 119/344/3
f 119/345/4 120/346/4 118/347/4 117/348/4
f 117/349/1 118/350/1 114/351/1 113/352/1
f 115/353/5 119/354/5 117/355/5 113/356/5
f 120/357/6 116/358/6 114/359/6 118/360/6
f 121/361/2 122/362/2 124/363/2 123/364/2
f 123/365/3 124/366/3 128/367/3 127/368/3
f 127/369/4 128/370/4 126/371/4 125/372/4
f 125/373/1 126/374/1 122/375/1 121/376/1
f 123/377/5 127/378/5 125/379/5 121/380/5
f 128/381/6 124/382/6 122/383/6 126/384/6
f 129/385/2 130/386/2 132/387/2 131/388/2
f 131/389/3 132/390/3 136/391/3 135/392/3
f 135/393/4 136/394/4 134/395/4 133/396/4
f 133/397/1 134/398/1 130/399/1 129/400/1
f 131/401/5 135/402/5 133/403/5 129/404/5
f 136/405/6 132/406/6 130/407/6 134/408/6
f 137/409/2 138/410/2 140/411/2 139/412/2
f 139/413/3 140/414/3 144/415/3 143/416/3
f 143/417/4 144/418/4 142/419/4 141/420/4
f 141/421/1 142/422/1 138/423/1 137/424/1
f 139/425/5 143/426/5 141/427/5 137/428/5
f 144/429/6 140/430/6 138/431/6 142/432/6
