# Blender v2.80 (sub 75) OBJ File: 'game.blend'
# www.blender.org
o obs0_Cube.003
v -0.551298 0.000000 1.000000
v -1.000000 0.000000 0.551298
v -1.000000 0.000000 -0.551298
v -0.551298 0.000000 -1.000000
v 1.000000 0.000000 0.551298
v 0.551298 0.000000 1.000000
v 0.551298 0.000000 -1.000000
v 1.000000 0.000000 -0.551298
v -0.412823 0.318045 0.227589
v -0.227589 0.318045 0.412823
v -0.227589 0.318045 -0.412823
v -0.412823 0.318045 -0.227589
v 0.227589 0.318045 0.412823
v 0.412823 0.318045 0.227589
v 0.412823 0.318045 -0.227589
v 0.227589 0.318045 -0.412823
v -0.412823 0.787823 0.134144
v -0.227589 0.858710 0.305279
v -0.227589 0.542748 -0.457520
v -0.412823 0.613635 -0.286385
v 0.227589 0.858710 0.305279
v 0.412823 0.787823 0.134144
v 0.412823 0.613635 -0.286385
v 0.227589 0.542748 -0.457520
v -0.412823 1.186082 -0.131964
v -0.227589 1.317063 -0.000983
v -0.227589 0.733242 -0.584803
v -0.412823 0.864223 -0.453823
v 0.227589 1.317063 -0.000983
v 0.412823 1.186082 -0.131964
v 0.412823 0.864223 -0.453823
v 0.227589 0.733242 -0.584803
v -0.412823 1.452190 -0.530222
v -0.227589 1.623324 -0.459336
v -0.227589 0.860526 -0.775297
v -0.412823 1.031661 -0.704411
v 0.227589 1.623324 -0.459336
v 0.412823 1.452190 -0.530222
v 0.412823 1.031661 -0.704411
v 0.227589 0.860526 -0.775297
v -0.933620 0.318045 0.514703
v -1.000000 0.248299 0.551298
v -0.551298 0.248299 1.000000
v -0.514703 0.318045 0.933620
v -0.514703 0.318045 -0.933620
v -0.551298 0.248299 -1.000000
v -1.000000 0.248299 -0.551298
v -0.933620 0.318045 -0.514703
v 0.514703 0.318045 0.933620
v 0.551298 0.248299 1.000000
v 1.000000 0.248299 0.551298
v 0.933620 0.318045 0.514703
v 0.933620 0.318045 -0.514703
v 1.000000 0.248299 -0.551298
v 0.551298 0.248299 -1.000000
v 0.514703 0.318045 -0.933620
v -0.305980 1.501378 -1.000000
v -0.412823 1.524585 -0.894180
v -0.227589 1.709828 -0.894220
v -0.183333 1.624025 -1.000000
v -0.183333 1.012066 -1.000000
v -0.227589 0.884181 -0.894220
v -0.412823 1.069408 -0.894180
v -0.305980 1.134713 -1.000000
v 0.183333 1.624025 -1.000000
v 0.227589 1.709828 -0.894220
v 0.412823 1.524585 -0.894180
v 0.305980 1.501378 -1.000000
v 0.305980 1.134713 -1.000000
v 0.412823 1.069408 -0.894180
v 0.227589 0.884181 -0.894220
v 0.183333 1.012066 -1.000000
vt 0.625000 0.806088
vt 0.625000 0.943912
vt 0.625000 0.943912
vt 0.625000 0.556088
vt 0.625000 0.693912
vt 0.625000 0.693912
vt 0.625000 0.806088
vt 0.625000 0.056088
vt 0.625000 0.193912
vt 0.625000 0.193912
vt 0.625000 0.306088
vt 0.625000 0.443912
vt 0.625000 0.443912
vt 0.570176 0.056088
vt 0.375000 0.193912
vt 0.375000 0.056088
vt 0.570176 0.306088
vt 0.375000 0.443912
vt 0.375000 0.306088
vt 0.570176 0.556088
vt 0.375000 0.693912
vt 0.375000 0.556088
vt 0.318912 0.750000
vt 0.181088 0.750000
vt 0.125000 0.693912
vt 0.625000 0.556088
vt 0.625000 0.556088
vt 0.570176 0.943912
vt 0.375000 1.000000
vt 0.375000 0.943912
vt 0.570176 0.806088
vt 0.375000 0.806088
vt 0.625000 0.306088
vt 0.570176 0.693912
vt 0.570176 0.193912
vt 0.570176 0.443912
vt 0.625000 0.693912
vt 0.625000 0.693912
vt 0.625000 1.000000
vt 0.625000 1.000000
vt 0.625000 0.443912
vt 0.625000 0.943912
vt 0.625000 0.806088
vt 0.625000 0.306088
vt 0.625000 0.056088
vt 0.625000 0.193912
vt 0.625000 0.806088
vt 0.625000 0.806088
vt 0.625000 0.056088
vt 0.625000 0.193912
vt 0.625000 0.443912
vt 0.625000 0.556088
vt 0.625000 0.943912
vt 0.625000 1.000000
vt 0.625000 0.306088
vt 0.625000 0.693912
vt 0.625000 0.806088
vt 0.625000 0.306088
vt 0.625000 0.693912
vt 0.625000 0.056088
vt 0.625000 0.193912
vt 0.625000 0.556088
vt 0.625000 1.000000
vt 0.625000 0.443912
vt 0.625000 0.943912
vt 0.625000 0.056088
vt 0.625000 0.193912
vt 0.625000 0.306088
vt 0.625000 0.556088
vt 0.625000 0.443912
vt 0.625000 0.943912
vt 0.842648 0.569488
vt 0.805512 0.717648
vt 0.657352 0.680512
vt 0.625000 1.000000
vt 0.842648 0.680512
vt 0.822098 0.746814
vt 0.805512 0.532351
vt 0.871813 0.552901
vt 0.694488 0.532352
vt 0.628187 0.552901
vt 0.681088 0.500000
vt 0.677902 0.746814
vt 0.875000 0.687539
vt 0.681088 0.750000
vt 0.694488 0.717648
vt 0.657351 0.569488
vt 0.625000 0.430512
vt 0.625000 1.000000
vt 0.125000 0.556088
vt 0.181088 0.500000
vt 0.318912 0.500000
vt 0.570176 1.000000
vt 0.625000 0.056088
vt 0.875000 0.693912
vt 0.818912 0.500000
vt 0.875000 0.556088
vt 0.818912 0.750000
vt 0.625000 0.319488
vn 0.0000 1.0000 0.0000
vn -1.0000 0.0000 0.0000
vn 0.0000 0.0000 -1.0000
vn 1.0000 0.0000 0.0000
vn 0.0000 -1.0000 0.0000
vn 0.7002 -0.1393 -0.7002
vn -0.7071 0.0000 0.7071
vn 0.0000 0.0000 1.0000
vn 0.7071 0.0000 0.7071
vn -0.7071 0.0000 -0.7071
vn 0.7071 0.0000 -0.7071
vn -0.7002 0.1393 0.7002
vn 0.0000 -0.1951 -0.9808
vn 0.0000 0.1951 0.9808
vn 0.7002 0.1393 0.7002
vn -0.7002 -0.1393 -0.7002
vn 0.7002 0.5936 0.3966
vn 0.7002 -0.3966 -0.5936
vn -0.7002 0.3966 0.5936
vn 0.0000 -0.5556 -0.8315
vn 0.0000 0.5556 0.8315
vn 0.7002 0.3966 0.5936
vn -0.7002 -0.3966 -0.5936
vn 0.7002 0.7002 0.1393
vn -0.7002 -0.5936 -0.3966
vn 0.7002 -0.5936 -0.3966
vn -0.7002 0.5936 0.3966
vn 0.0000 -0.8315 -0.5556
vn 0.0000 0.8315 0.5556
vn -0.7002 -0.7002 -0.1393
vn 0.0000 -0.9808 -0.1951
vn 0.7002 -0.7002 -0.1393
vn 0.0000 0.9808 0.1951
vn -0.4891 0.7222 0.4891
vn -0.4891 0.7222 -0.4891
vn 0.4891 0.7222 -0.4891
vn 0.4891 0.7222 0.4891
vn -0.7244 0.6894 0.0000
vn 0.0000 0.6894 0.7244
vn 0.7244 0.6894 0.0000
vn 0.0000 0.6894 -0.7244
vn -0.5336 0.5336 -0.6561
vn -0.4639 -0.4639 -0.7547
vn 0.4639 -0.4638 -0.7548
vn 0.5338 0.5336 -0.6560
vn -0.7037 0.0000 -0.7105
vn 0.0000 0.7766 -0.6300
vn 0.7037 0.0000 -0.7105
vn 0.0000 -0.6374 -0.7706
vn -0.7002 0.7002 0.1393
vn -0.5338 0.5336 -0.6560
vn -0.4639 -0.4638 -0.7548
vn 0.4639 -0.4639 -0.7547
vn 0.5336 0.5336 -0.6561
s off
f 49/1/1 10/2/1 44/3/1
f 53/4/1 14/5/1 52/6/1
f 52/6/1 13/7/1 49/1/1
f 41/8/1 12/9/1 48/10/1
f 45/11/1 16/12/1 56/13/1
f 42/14/2 3/15/2 2/16/2
f 46/17/3 7/18/3 4/19/3
f 54/20/4 5/21/4 8/22/4
f 6/23/5 1/24/5 2/25/5
f 16/12/6 23/26/6 15/27/6
f 43/28/7 2/29/7 1/30/7
f 56/13/1 15/27/1 53/4/1
f 50/31/8 1/30/8 6/32/8
f 48/10/1 11/33/1 45/11/1
f 6/32/9 51/34/9 50/31/9
f 4/19/10 47/35/10 46/17/10
f 8/22/11 55/36/11 54/20/11
f 23/26/4 30/37/4 22/38/4
f 10/2/12 17/39/12 9/40/12
f 11/33/13 24/41/13 16/12/13
f 13/7/14 18/42/14 10/2/14
f 14/5/15 21/43/15 13/7/15
f 12/9/16 19/44/16 11/33/16
f 15/27/4 22/38/4 14/5/4
f 9/45/2 20/46/2 12/9/2
f 30/37/17 37/47/17 29/48/17
f 17/49/2 28/50/2 20/46/2
f 23/26/18 32/51/18 31/52/18
f 17/39/19 26/53/19 25/54/19
f 19/44/20 32/51/20 24/41/20
f 21/43/21 26/53/21 18/42/21
f 22/38/22 29/48/22 21/43/22
f 20/46/23 27/55/23 19/44/23
f 37/47/24 67/56/24 66/57/24
f 28/50/25 35/58/25 27/55/25
f 31/52/4 38/59/4 30/37/4
f 25/60/2 36/61/2 28/50/2
f 32/51/26 39/62/26 31/52/26
f 26/53/27 33/63/27 25/54/27
f 27/55/28 40/64/28 32/51/28
f 29/48/29 34/65/29 26/53/29
f 33/66/2 63/67/2 36/61/2
f 35/58/30 63/67/30 62/68/30
f 38/59/4 70/69/4 67/56/4
f 35/58/31 71/70/31 40/64/31
f 40/64/32 70/69/32 39/62/32
f 37/47/33 59/71/33 34/65/33
f 64/72/3 60/73/3 68/74/3
f 41/75/34 43/28/34 44/3/34
f 45/11/35 47/35/35 48/10/35
f 53/4/36 55/36/36 56/13/36
f 49/1/37 51/34/37 52/6/37
f 48/10/38 42/14/38 41/8/38
f 44/3/39 50/31/39 49/1/39
f 54/20/40 52/6/40 51/34/40
f 46/17/41 56/13/41 55/36/41
f 44/3/1 9/40/1 41/75/1
f 57/76/42 59/77/42 60/73/42
f 61/78/43 63/79/43 64/72/43
f 72/80/44 70/81/44 71/82/44
f 68/74/45 66/83/45 67/56/45
f 64/72/46 58/84/46 57/76/46
f 60/73/47 66/85/47 65/86/47
f 67/56/48 69/87/48 68/74/48
f 62/68/49 72/88/49 71/70/49
f 34/65/50 58/89/50 33/63/50
f 49/1/1 13/7/1 10/2/1
f 53/4/1 15/27/1 14/5/1
f 52/6/1 14/5/1 13/7/1
f 41/8/1 9/45/1 12/9/1
f 45/11/1 11/33/1 16/12/1
f 42/14/2 47/35/2 3/15/2
f 46/17/3 55/36/3 7/18/3
f 54/20/4 51/34/4 5/21/4
f 2/25/5 3/90/5 8/22/5
f 3/90/5 4/91/5 8/22/5
f 4/91/5 7/92/5 8/22/5
f 8/22/5 5/21/5 2/25/5
f 5/21/5 6/23/5 2/25/5
f 16/12/6 24/41/6 23/26/6
f 43/28/7 42/93/7 2/29/7
f 56/13/1 16/12/1 15/27/1
f 50/31/8 43/28/8 1/30/8
f 48/10/1 12/9/1 11/33/1
f 6/32/9 5/21/9 51/34/9
f 4/19/10 3/15/10 47/35/10
f 8/22/11 7/18/11 55/36/11
f 23/26/4 31/52/4 30/37/4
f 10/2/12 18/42/12 17/39/12
f 11/33/13 19/44/13 24/41/13
f 13/7/14 21/43/14 18/42/14
f 14/5/15 22/38/15 21/43/15
f 12/9/16 20/46/16 19/44/16
f 15/27/4 23/26/4 22/38/4
f 9/45/2 17/49/2 20/46/2
f 30/37/17 38/59/17 37/47/17
f 17/49/2 25/60/2 28/50/2
f 23/26/18 24/41/18 32/51/18
f 17/39/19 18/42/19 26/53/19
f 19/44/20 27/55/20 32/51/20
f 21/43/21 29/48/21 26/53/21
f 22/38/22 30/37/22 29/48/22
f 20/46/23 28/50/23 27/55/23
f 37/47/24 38/59/24 67/56/24
f 28/50/25 36/61/25 35/58/25
f 31/52/4 39/62/4 38/59/4
f 25/60/2 33/66/2 36/61/2
f 32/51/26 40/64/26 39/62/26
f 26/53/27 34/65/27 33/63/27
f 27/55/28 35/58/28 40/64/28
f 29/48/29 37/47/29 34/65/29
f 33/66/2 58/94/2 63/67/2
f 35/58/30 36/61/30 63/67/30
f 38/59/4 39/62/4 70/69/4
f 35/58/31 62/68/31 71/70/31
f 40/64/32 71/70/32 70/69/32
f 37/47/33 66/57/33 59/71/33
f 68/74/3 69/87/3 72/80/3
f 72/80/3 61/78/3 64/72/3
f 64/72/3 57/76/3 60/73/3
f 60/73/3 65/86/3 68/74/3
f 68/74/3 72/80/3 64/72/3
f 41/75/34 42/93/34 43/28/34
f 45/11/35 46/17/35 47/35/35
f 53/4/36 54/20/36 55/36/36
f 49/1/37 50/31/37 51/34/37
f 48/10/38 47/35/38 42/14/38
f 44/3/39 43/28/39 50/31/39
f 54/20/40 53/4/40 52/6/40
f 46/17/41 45/11/41 56/13/41
f 44/3/1 10/2/1 9/40/1
f 57/76/51 58/95/51 59/77/51
f 61/78/52 62/96/52 63/79/52
f 72/80/53 69/87/53 70/81/53
f 68/74/54 65/86/54 66/83/54
f 64/72/46 63/97/46 58/84/46
f 60/73/47 59/98/47 66/85/47
f 67/56/48 70/69/48 69/87/48
f 62/68/49 61/99/49 72/88/49
f 34/65/50 59/71/50 58/89/50
