# Blender v2.80 (sub 75) OBJ File: 'game.blend'
# www.blender.org
o Cube.005_Cube.008
v -1.000000 0.000000 1.000000
v -1.000000 0.100000 1.000000
v -1.000000 0.000000 -1.000000
v -1.000000 0.100000 -1.000000
v 1.000000 0.000000 1.000000
v 1.000000 0.100000 1.000000
v 1.000000 0.000000 -1.000000
v 1.000000 0.100000 -1.000000
v -0.400000 0.100000 0.400000
v -0.400000 0.100000 -0.400000
v 0.400000 0.100000 -0.400000
v 0.400000 0.100000 0.400000
v -0.400000 1.100000 0.400000
v -0.400000 1.100000 -0.400000
v 0.400000 1.100000 -0.400000
v 0.400000 1.100000 0.400000
vt 0.333333 0.666667
vt 0.666667 0.333333
vt 0.666667 0.666667
vt 0.000000 0.666667
vt 0.333333 0.333333
vt 0.333333 0.666667
vt 0.000000 0.333333
vt 0.333333 0.000000
vt 0.333333 0.000000
vt 0.666667 0.333333
vt 0.333333 0.333333
vt 0.666667 0.333333
vt 1.000000 0.000000
vt 1.000000 0.333333
vt 0.000000 0.000000
vt 0.000000 0.000000
vt 0.333333 0.000000
vt 0.666667 0.000000
vt 0.666667 0.000000
vt 0.333333 0.333333
vt 0.333333 0.333333
vt 0.666667 0.000000
vt 0.000000 0.333333
vt 0.333333 1.000000
vt 0.000000 0.666667
vt 0.333333 0.666667
vt 0.000000 0.666667
vt 0.000000 0.333333
vt 0.000000 0.000000
vt 0.333333 0.666667
vt 0.333333 0.333333
vt 0.666667 0.000000
vt 0.333333 0.000000
vt 0.000000 1.000000
vt 0.000000 0.666667
vt 0.333333 0.666667
vn -1.0000 0.0000 0.0000
vn 0.0000 0.0000 -1.0000
vn 1.0000 0.0000 0.0000
vn 0.0000 0.0000 1.0000
vn 0.0000 -1.0000 0.0000
vn 0.0000 1.0000 0.0000
s off
f 2/1/1 3/2/1 1/3/1
f 4/4/2 7/5/2 3/6/2
f 8/7/3 5/8/3 7/5/3
f 6/9/4 1/10/4 5/11/4
f 7/12/5 1/13/5 3/14/5
f 8/7/6 12/15/6 6/16/6
f 12/17/4 13/18/4 9/19/4
f 2/1/6 10/20/6 4/21/6
f 6/9/6 9/19/6 2/22/6
f 4/4/6 11/23/6 8/7/6
f 14/24/6 16/25/6 15/26/6
f 10/27/2 15/28/2 11/23/2
f 11/23/3 16/29/3 12/15/3
f 9/30/1 14/31/1 10/20/1
f 2/1/1 4/21/1 3/2/1
f 4/4/2 8/7/2 7/5/2
f 8/7/3 6/16/3 5/8/3
f 6/9/4 2/22/4 1/10/4
f 7/12/5 5/32/5 1/13/5
f 8/7/6 11/23/6 12/15/6
f 12/17/4 16/33/4 13/18/4
f 2/1/6 9/30/6 10/20/6
f 6/9/6 12/17/6 9/19/6
f 4/4/6 10/27/6 11/23/6
f 14/24/6 13/34/6 16/25/6
f 10/27/2 14/35/2 15/28/2
f 11/23/3 15/28/3 16/29/3
f 9/30/1 13/36/1 14/31/1
