# Blender v2.80 (sub 75) OBJ File: 'game.blend'
# www.blender.org
o ob2_Cube.031
v -0.028771 0.000000 0.400000
v -0.400000 0.000000 0.028771
v -0.400000 0.100000 0.028771
v -0.028771 0.100000 0.400000
v -0.400000 0.000000 -0.028771
v -0.028771 0.000000 -0.400000
v -0.028771 0.100000 -0.400000
v -0.400000 0.100000 -0.028771
v 0.400000 0.000000 0.028771
v 0.028771 0.000000 0.400000
v 0.028771 0.100000 0.400000
v 0.400000 0.100000 0.028771
v 0.028771 0.000000 -0.400000
v 0.400000 0.000000 -0.028771
v 0.400000 0.100000 -0.028771
v 0.028771 0.100000 -0.400000
v -0.125000 0.100000 0.125000
v -0.125000 0.375000 0.125000
v -0.125000 0.100000 -0.125000
v -0.125000 0.375000 -0.125000
v 0.125000 0.100000 0.125000
v 0.125000 0.375000 0.125000
v 0.125000 0.100000 -0.125000
v 0.125000 0.375000 -0.125000
v -0.125000 0.625000 0.125000
v -0.125000 0.625000 -0.125000
v 0.125000 0.625000 -0.125000
v 0.125000 0.625000 0.125000
v -0.125000 0.875000 0.125000
v -0.125000 0.875000 -0.125000
v 0.125000 0.875000 -0.125000
v 0.125000 0.875000 0.125000
v -0.125000 1.125000 0.125000
v -0.125000 1.125000 -0.125000
v 0.125000 1.125000 -0.125000
v 0.125000 1.125000 0.125000
v -0.125000 1.375000 0.125000
v -0.125000 1.375000 -0.125000
v 0.125000 1.375000 -0.125000
v 0.125000 1.375000 0.125000
v -0.125000 1.625000 0.125000
v -0.125000 1.625000 -0.125000
v 0.125000 1.625000 -0.125000
v 0.125000 1.625000 0.125000
v -0.125000 2.000000 0.125000
v -0.125000 2.000000 -0.125000
v 0.125000 2.000000 -0.125000
v 0.125000 2.000000 0.125000
v 1.000000 0.375000 0.125000
v 1.000000 0.375000 -0.125000
v 1.000000 0.625000 -0.125000
v 1.000000 0.625000 0.125000
v -1.000000 0.375000 -0.125000
v -1.000000 0.375000 0.125000
v -1.000000 0.625000 0.125000
v -1.000000 0.625000 -0.125000
v 0.125000 0.875000 -1.000000
v -0.125000 0.875000 -1.000000
v -0.125000 1.125000 -1.000000
v 0.125000 1.125000 -1.000000
v -0.125000 1.375000 1.000000
v 0.125000 1.375000 1.000000
v 0.125000 1.625000 1.000000
v -0.125000 1.625000 1.000000
v 0.125000 1.375000 -1.000000
v -0.125000 1.375000 -1.000000
v -0.125000 1.625000 -1.000000
v 0.125000 1.625000 -1.000000
vt 0.625000 0.866009
vt 0.375000 0.883991
vt 0.375000 0.866009
vt 0.625000 0.616009
vt 0.375000 0.633991
vt 0.375000 0.616009
vt 0.625000 0.116009
vt 0.375000 0.133991
vt 0.375000 0.116009
vt 0.625000 0.366009
vt 0.375000 0.383991
vt 0.375000 0.366009
vt 0.625000 0.883991
vt 0.375000 1.000000
vt 0.625000 0.133991
vt 0.625000 0.383991
vt 0.625000 0.633991
vt 0.258991 0.750000
vt 0.241009 0.750000
vt 0.125000 0.633991
vt 0.625000 0.000000
vt 0.375000 0.250000
vt 0.375000 0.000000
vt 0.625000 0.250000
vt 0.375000 0.500000
vt 0.625000 0.500000
vt 0.375000 0.750000
vt 0.625000 0.750000
vt 0.375000 1.000000
vt 0.125000 0.750000
vt 0.125000 0.500000
vt 0.625000 1.000000
vt 0.625000 1.000000
vt 0.625000 0.500000
vt 0.625000 0.750000
vt 0.625000 0.750000
vt 0.625000 0.500000
vt 0.625000 0.750000
vt 0.625000 0.000000
vt 0.625000 0.250000
vt 0.625000 0.250000
vt 0.625000 1.000000
vt 0.625000 1.000000
vt 0.625000 1.000000
vt 0.625000 0.000000
vt 0.625000 0.250000
vt 0.625000 0.500000
vt 0.625000 0.750000
vt 0.625000 0.750000
vt 0.625000 0.500000
vt 0.625000 0.000000
vt 0.625000 0.250000
vt 0.625000 0.000000
vt 0.625000 0.250000
vt 0.625000 0.250000
vt 0.625000 0.000000
vt 0.875000 0.500000
vt 0.625000 0.750000
vt 0.625000 0.500000
vt 0.625000 1.000000
vt 0.625000 1.000000
vt 0.625000 0.500000
vt 0.000000 0.000000
vt 0.000000 0.000000
vt 0.000000 0.000000
vt 0.000000 0.000000
vt 0.000000 0.000000
vt 0.000000 0.000000
vt 0.000000 0.000000
vt 0.000000 0.000000
vt 0.000000 0.000000
vt 0.000000 0.000000
vt 0.625000 0.500000
vt 0.625000 0.750000
vt 0.625000 0.750000
vt 0.625000 0.500000
vt 0.625000 0.000000
vt 0.625000 0.250000
vt 0.625000 0.250000
vt 0.625000 0.000000
vt 0.625000 0.250000
vt 0.625000 0.500000
vt 0.625000 0.500000
vt 0.625000 0.250000
vt 0.625000 0.750000
vt 0.625000 1.000000
vt 0.625000 1.000000
vt 0.625000 0.750000
vt 0.625000 0.250000
vt 0.625000 0.500000
vt 0.625000 0.500000
vt 0.625000 0.250000
vt 0.625000 1.000000
vt 0.125000 0.616009
vt 0.241009 0.500000
vt 0.258991 0.500000
vt 0.625000 0.000000
vt 0.875000 0.750000
vn 0.0000 0.0000 1.0000
vn 1.0000 0.0000 0.0000
vn -1.0000 0.0000 0.0000
vn 0.0000 0.0000 -1.0000
vn -0.7071 0.0000 0.7071
vn -0.7071 0.0000 -0.7071
vn 0.7071 0.0000 -0.7071
vn 0.7071 0.0000 0.7071
vn 0.0000 -1.0000 0.0000
vn 0.0000 1.0000 0.0000
s off
f 11/1/1 1/2/1 10/3/1
f 15/4/2 9/5/2 14/6/2
f 3/7/3 5/8/3 2/9/3
f 7/10/4 13/11/4 6/12/4
f 4/13/5 2/14/5 1/2/5
f 6/12/6 8/15/6 7/10/6
f 14/6/7 16/16/7 15/4/7
f 10/3/8 12/17/8 11/1/8
f 10/18/9 1/19/9 2/20/9
f 18/21/3 19/22/3 17/23/3
f 20/24/4 23/25/4 19/22/4
f 24/26/2 21/27/2 23/25/2
f 22/28/1 17/29/1 21/27/1
f 23/25/9 17/30/9 19/31/9
f 22/28/1 25/32/1 18/33/1
f 27/34/2 32/35/2 28/36/2
f 20/24/4 27/34/4 24/26/4
f 31/37/2 36/38/2 32/35/2
f 25/39/3 30/40/3 26/41/3
f 28/36/1 29/42/1 25/32/1
f 26/41/4 31/37/4 27/34/4
f 36/38/1 37/43/1 33/44/1
f 29/45/3 34/46/3 30/40/3
f 32/35/1 33/44/1 29/42/1
f 39/47/2 44/48/2 40/49/2
f 34/46/4 39/47/4 35/50/4
f 35/50/2 40/49/2 36/38/2
f 33/51/3 38/52/3 34/46/3
f 41/53/3 46/54/3 42/55/3
f 37/56/3 42/55/3 38/52/3
f 46/57/10 48/58/10 47/59/10
f 44/48/1 45/60/1 41/61/1
f 42/55/4 47/59/4 43/62/4
f 43/62/2 48/58/2 44/48/2
f 21/27/10 15/4/10 23/25/10
f 15/4/10 16/16/10 23/25/10
f 16/63/10 19/64/10 23/65/10
f 7/66/10 8/15/10 19/64/10
f 17/67/10 8/68/10 3/69/10
f 3/69/10 4/13/10 17/67/10
f 21/70/10 4/71/10 11/72/10
f 11/72/10 12/17/10 21/70/10
f 50/73/2 52/74/2 49/75/2
f 50/73/9 22/28/9 24/26/9
f 51/76/4 24/26/4 27/34/4
f 52/74/10 27/34/10 28/36/10
f 49/75/1 28/36/1 22/28/1
f 54/77/3 56/78/3 53/79/3
f 54/77/9 20/24/9 18/21/9
f 55/80/1 18/21/1 25/39/1
f 56/78/10 25/39/10 26/41/10
f 53/79/4 26/41/4 20/24/4
f 58/81/4 60/82/4 57/83/4
f 58/81/9 31/37/9 30/40/9
f 59/84/3 30/40/3 34/46/3
f 60/82/10 34/46/10 35/50/10
f 57/83/2 35/50/2 31/37/2
f 62/85/1 64/86/1 61/87/1
f 62/85/9 37/43/9 40/49/9
f 63/88/2 40/49/2 44/48/2
f 64/86/10 44/48/10 41/61/10
f 61/87/3 41/61/3 37/43/3
f 66/89/4 68/90/4 65/91/4
f 66/89/9 39/47/9 38/52/9
f 67/92/3 38/52/3 42/55/3
f 68/90/10 42/55/10 43/62/10
f 65/91/2 43/62/2 39/47/2
f 11/1/1 4/13/1 1/2/1
f 15/4/2 12/17/2 9/5/2
f 3/7/3 8/15/3 5/8/3
f 7/10/4 16/16/4 13/11/4
f 4/13/5 3/93/5 2/14/5
f 6/12/6 5/8/6 8/15/6
f 14/6/7 13/11/7 16/16/7
f 10/3/8 9/5/8 12/17/8
f 2/20/9 5/94/9 14/6/9
f 5/94/9 6/95/9 14/6/9
f 6/95/9 13/96/9 14/6/9
f 14/6/9 9/5/9 2/20/9
f 9/5/9 10/18/9 2/20/9
f 18/21/3 20/24/3 19/22/3
f 20/24/4 24/26/4 23/25/4
f 24/26/2 22/28/2 21/27/2
f 22/28/1 18/33/1 17/29/1
f 23/25/9 21/27/9 17/30/9
f 22/28/1 28/36/1 25/32/1
f 27/34/2 31/37/2 32/35/2
f 20/24/4 26/41/4 27/34/4
f 31/37/2 35/50/2 36/38/2
f 25/39/3 29/45/3 30/40/3
f 28/36/1 32/35/1 29/42/1
f 26/41/4 30/40/4 31/37/4
f 36/38/1 40/49/1 37/43/1
f 29/45/3 33/51/3 34/46/3
f 32/35/1 36/38/1 33/44/1
f 39/47/2 43/62/2 44/48/2
f 34/46/4 38/52/4 39/47/4
f 35/50/2 39/47/2 40/49/2
f 33/51/3 37/56/3 38/52/3
f 41/53/3 45/97/3 46/54/3
f 37/56/3 41/53/3 42/55/3
f 46/57/10 45/98/10 48/58/10
f 44/48/1 48/58/1 45/60/1
f 42/55/4 46/54/4 47/59/4
f 43/62/2 47/59/2 48/58/2
f 21/27/10 12/17/10 15/4/10
f 16/63/10 7/66/10 19/64/10
f 17/67/10 19/64/10 8/68/10
f 21/70/10 17/67/10 4/71/10
f 50/73/2 51/76/2 52/74/2
f 50/73/9 49/75/9 22/28/9
f 51/76/4 50/73/4 24/26/4
f 52/74/10 51/76/10 27/34/10
f 49/75/1 52/74/1 28/36/1
f 54/77/3 55/80/3 56/78/3
f 54/77/9 53/79/9 20/24/9
f 55/80/1 54/77/1 18/21/1
f 56/78/10 55/80/10 25/39/10
f 53/79/4 56/78/4 26/41/4
f 58/81/4 59/84/4 60/82/4
f 58/81/9 57/83/9 31/37/9
f 59/84/3 58/81/3 30/40/3
f 60/82/10 59/84/10 34/46/10
f 57/83/2 60/82/2 35/50/2
f 62/85/1 63/88/1 64/86/1
f 62/85/9 61/87/9 37/43/9
f 63/88/2 62/85/2 40/49/2
f 64/86/10 63/88/10 44/48/10
f 61/87/3 64/86/3 41/61/3
f 66/89/4 67/92/4 68/90/4
f 66/89/9 65/91/9 39/47/9
f 67/92/3 66/89/3 38/52/3
f 68/90/10 67/92/10 42/55/10
f 65/91/2 68/90/2 43/62/2
