# Blender v2.80 (sub 75) OBJ File: 'game.blend'
# www.blender.org
o Cube.005_Cube.007
v -1.000000 0.000000 -1.000000
v 0.386988 1.944841 -0.350219
v 1.000000 0.000000 1.000000
v 1.000000 2.000000 1.000000
v 0.342262 0.000000 1.000000
v -1.000000 0.000000 -0.342262
v 0.312319 2.106741 -0.054775
v 0.723730 2.143759 0.851399
v -0.342262 0.000000 -1.000000
v 1.000000 0.000000 0.342262
v 1.074669 1.838101 0.704556
v 0.663257 1.801082 -0.201618
vt 0.625000 0.750000
vt 0.375000 0.832217
vt 0.375000 0.750000
vt 0.625000 0.667783
vt 0.375000 0.667783
vt 0.875000 0.582217
vt 0.707217 0.750000
vt 0.375000 0.167783
vt 0.625000 0.250000
vt 0.375000 0.250000
vt 0.375000 0.332217
vt 0.625000 1.000000
vt 0.375000 1.000000
vt 0.625000 0.332217
vt 0.292783 0.750000
vt 0.125000 0.582217
vt 0.207217 0.500000
vt 0.625000 0.832217
vt 0.792783 0.500000
vt 0.875000 0.500000
vt 0.625000 0.167783
vt 0.125000 0.500000
vn 0.0000 0.0000 1.0000
vn 0.9992 -0.0406 0.0000
vn 0.5587 0.7787 -0.2855
vn -0.8142 0.5806 0.0000
vn 0.0000 0.3169 -0.9485
vn -0.6687 0.3253 0.6687
vn 0.9089 0.0448 -0.4145
vn 0.0000 -1.0000 0.0000
vn -0.4135 0.1360 0.9003
vn 0.9695 0.0000 0.2450
vn -0.7222 0.5132 -0.4637
vn 0.5094 0.0948 -0.8553
vn -0.8973 0.1874 0.3997
vn 0.7048 -0.0811 -0.7048
s off
f 4/1/1 5/2/1 3/3/1
f 11/4/2 3/3/2 10/5/2
f 7/6/3 8/7/3 11/4/3
f 6/8/4 2/9/4 1/10/4
f 2/9/5 9/11/5 1/10/5
f 5/2/6 7/12/6 6/13/6
f 10/5/7 12/14/7 11/4/7
f 5/15/8 6/16/8 9/17/8
f 4/1/9 8/18/9 5/2/9
f 11/4/10 4/1/10 3/3/10
f 4/1/3 11/4/3 8/7/3
f 11/4/3 12/19/3 7/6/3
f 12/19/3 2/20/3 7/6/3
f 6/8/11 7/21/11 2/9/11
f 2/9/12 12/14/12 9/11/12
f 5/2/13 8/18/13 7/12/13
f 10/5/14 9/11/14 12/14/14
f 6/16/8 1/22/8 9/17/8
f 9/17/8 10/5/8 5/15/8
f 10/5/8 3/3/8 5/15/8
