# Blender v2.80 (sub 75) OBJ File: 'game.blend'
# www.blender.org
o Cube.004_Cube.006
v 0.251132 0.519797 -0.533206
v 0.184520 0.519797 -0.533206
v 0.271717 0.576462 -0.504873
v 0.163935 0.576462 -0.504873
v 0.217826 0.576462 -0.544028
v 0.237402 0.494238 -0.514309
v 0.269079 0.514823 -0.504017
v 0.217826 0.514823 -0.541254
v 0.198249 0.494238 -0.514309
v 0.166573 0.514823 -0.504017
v 0.237403 0.548129 -0.547616
v 0.198249 0.548129 -0.547616
v 0.269079 0.548129 -0.524601
v 0.166572 0.548129 -0.524601
v 0.249502 0.581436 -0.530962
v 0.186150 0.581436 -0.530962
v 0.217826 0.602021 -0.520670
v -0.251132 0.519797 -0.533206
v -0.184520 0.519797 -0.533206
v -0.271717 0.576462 -0.504873
v -0.163935 0.576462 -0.504873
v -0.217826 0.576462 -0.544028
v -0.237403 0.494238 -0.514309
v -0.269079 0.514823 -0.504017
v -0.217826 0.514823 -0.541254
v -0.198249 0.494238 -0.514309
v -0.166573 0.514823 -0.504017
v -0.237403 0.548129 -0.547616
v -0.198249 0.548129 -0.547616
v -0.269079 0.548129 -0.524601
v -0.166572 0.548129 -0.524601
v -0.249502 0.581436 -0.530962
v -0.186150 0.581436 -0.530962
v -0.217826 0.602021 -0.520670
v 0.136572 0.370938 -0.513206
v 0.136572 0.425567 -0.513206
v -0.136572 0.370938 -0.513206
v -0.136572 0.425567 -0.513206
v 0.318814 0.620878 -0.509015
v 0.327946 0.657077 -0.509015
v 0.137815 0.666538 -0.509015
v 0.146947 0.702738 -0.509015
v -0.318814 0.620878 -0.509015
v -0.327946 0.657077 -0.509015
v -0.137815 0.666538 -0.509015
v -0.146947 0.702738 -0.509015
v 0.500000 0.000000 0.500000
v 0.500000 1.000000 0.500000
v -0.500000 0.000000 0.500000
v -0.500000 1.000000 0.500000
v 0.500000 0.000000 -0.500000
v 0.500000 1.000000 -0.500000
v -0.500000 0.000000 -0.500000
v -0.500000 1.000000 -0.500000
v 0.137815 0.666538 -0.500000
v 0.318814 0.620878 -0.500000
v 0.146947 0.702738 -0.500000
v 0.327946 0.657077 -0.500000
v -0.137815 0.666538 -0.500000
v -0.318814 0.620878 -0.500000
v -0.146947 0.702738 -0.500000
v -0.327946 0.657077 -0.500000
v 0.136572 0.370938 -0.500000
v -0.136572 0.370938 -0.500000
v 0.136572 0.425567 -0.500000
v -0.136572 0.425567 -0.500000
v 0.189377 0.602021 -0.500000
v 0.217826 0.607893 -0.500000
v 0.249502 0.600572 -0.500000
v 0.246275 0.602021 -0.500000
v 0.271341 0.577172 -0.500000
v 0.256718 0.593719 -0.500000
v 0.186150 0.600572 -0.500000
v 0.274350 0.568577 -0.500000
v 0.277073 0.548129 -0.500000
v 0.269389 0.515407 -0.500000
v 0.271997 0.522856 -0.500000
v 0.266160 0.511754 -0.500000
v 0.193600 0.494238 -0.500000
v 0.169491 0.511754 -0.500000
v 0.208645 0.489214 -0.500000
v 0.227007 0.489214 -0.500000
v 0.242052 0.494238 -0.500000
v -0.189377 0.602021 -0.500000
v -0.186150 0.600572 -0.500000
v -0.169491 0.511754 -0.500000
v -0.193600 0.494238 -0.500000
v -0.208645 0.489214 -0.500000
v -0.178934 0.593719 -0.500000
v -0.164311 0.577172 -0.500000
v -0.166262 0.515407 -0.500000
v -0.161301 0.568577 -0.500000
v -0.158579 0.548129 -0.500000
v -0.163654 0.522856 -0.500000
v 0.164311 0.577172 -0.500000
v 0.161301 0.568577 -0.500000
v 0.158579 0.548129 -0.500000
v 0.166262 0.515407 -0.500000
v 0.163654 0.522856 -0.500000
v 0.178934 0.593719 -0.500000
v -0.217826 0.607893 -0.500000
v -0.227007 0.489214 -0.500000
v -0.246275 0.602021 -0.500000
v -0.242052 0.494238 -0.500000
v -0.249502 0.600572 -0.500000
v -0.266161 0.511754 -0.500000
v -0.256718 0.593719 -0.500000
v -0.271341 0.577172 -0.500000
v -0.269389 0.515407 -0.500000
v -0.274350 0.568577 -0.500000
v -0.277073 0.548129 -0.500000
v -0.271997 0.522856 -0.500000
vt 0.079677 0.759075
vt 0.087074 0.755420
vt 0.084675 0.764132
vt 0.077180 0.765584
vt 0.088816 0.769869
vt 0.096584 0.773187
vt 0.087596 0.777498
vt 0.071890 0.759071
vt 0.082028 0.771279
vt 0.069292 0.767776
vt 0.059925 0.768119
vt 0.063100 0.761388
vt 0.083964 0.785782
vt 0.084104 0.787288
vt 0.076847 0.787881
vt 0.075323 0.772083
vt 0.078629 0.778703
vt 0.069254 0.777270
vt 0.072422 0.787739
vt 0.064267 0.781541
vt 0.073497 0.788059
vt 0.086864 0.786128
vt 0.096628 0.775839
vt 0.092849 0.783030
vt 0.097580 0.773635
vt 0.077591 0.750781
vt 0.093563 0.763296
vt 0.097782 0.772179
vt 0.092221 0.753973
vt 0.040916 0.778698
vt 0.045915 0.773641
vt 0.048313 0.782352
vt 0.038419 0.772189
vt 0.050055 0.767904
vt 0.048835 0.760275
vt 0.057823 0.764586
vt 0.033129 0.778702
vt 0.043267 0.766494
vt 0.021165 0.769654
vt 0.030531 0.769996
vt 0.024339 0.776384
vt 0.045203 0.751991
vt 0.038087 0.749891
vt 0.045343 0.750485
vt 0.036563 0.765689
vt 0.030493 0.760502
vt 0.039869 0.759069
vt 0.025506 0.756231
vt 0.033661 0.750034
vt 0.048103 0.751645
vt 0.054089 0.754743
vt 0.057868 0.761933
vt 0.058820 0.764138
vt 0.038831 0.786992
vt 0.054802 0.774476
vt 0.059022 0.765594
vt 0.059022 0.774444
vt 0.053460 0.783799
vt 0.000107 0.824471
vt 0.013757 0.756218
vt 0.013757 0.824471
vt 0.000107 0.756218
vt 0.013757 0.749714
vt 0.123837 0.749714
vt 0.192089 0.756218
vt 0.123837 0.756218
vt 0.100248 0.798611
vt 0.109577 0.751966
vt 0.109577 0.798611
vt 0.100248 0.751966
vt 0.109577 0.749714
vt 0.097995 0.798611
vt 0.123624 0.798611
vt 0.114295 0.751966
vt 0.123624 0.751966
vt 0.123624 0.800863
vt 0.114295 0.798611
vt 0.112042 0.751966
vt 0.750060 0.249882
vt 0.500236 0.499696
vt 0.500245 0.249892
vt 0.500187 0.749501
vt 0.250441 0.499657
vt 0.157885 0.408830
vt 0.250460 0.249892
vt 0.250460 0.000107
vt 0.750060 0.499706
vt 0.999893 0.249872
vt 0.999893 0.499706
vt 0.123624 0.749714
vt 0.114295 0.749714
vt 0.100248 0.800863
vt 0.109577 0.800863
vt 0.074639 0.337838
vt 0.074696 0.411552
vt 0.000293 0.500094
vt 0.194555 0.796358
vt 0.192302 0.749714
vt 0.194555 0.749714
vt 0.111829 0.798611
vt 0.111829 0.751966
vt 0.000107 0.830975
vt 0.013757 0.830975
vt 0.020261 0.824471
vt 0.020261 0.756218
vt 0.144249 0.408819
vt 0.122665 0.417020
vt 0.121751 0.416248
vt 0.036187 0.787445
vt 0.059386 0.772524
vt 0.074948 0.750327
vt 0.077296 0.749714
vt 0.038536 0.788059
vt 0.095618 0.758633
vt 0.097782 0.763329
vt 0.056857 0.779140
vt 0.061627 0.761018
vt 0.108367 0.334252
vt 0.113525 0.414372
vt 0.108370 0.415090
vt 0.063202 0.758456
vt 0.024441 0.779317
vt 0.028441 0.784788
vt 0.078787 0.749734
vt 0.040026 0.788039
vt 0.048927 0.786669
vt 0.087687 0.751103
vt 0.022867 0.776755
vt 0.067201 0.752984
vt 0.020625 0.765248
vt 0.020474 0.766362
vt 0.059235 0.771410
vt 0.034737 0.749714
vt 0.000107 0.749714
vt 0.192089 0.749714
vt 0.100248 0.749714
vt 0.097995 0.751966
vt 0.114295 0.800863
vt 0.112042 0.798611
vt 0.250392 0.749452
vt 0.157985 0.340589
vt 0.500246 0.000107
vt 0.000107 0.249351
vt 0.085937 0.292471
vt 0.083743 0.340124
vt 0.083785 0.409248
vt 0.086109 0.456954
vt 0.192302 0.796358
vt 0.127423 0.314342
vt 0.144316 0.340538
vt 0.128603 0.318049
vt 0.119366 0.306282
vt 0.113085 0.305062
vt 0.094966 0.294683
vt 0.121911 0.307130
vt 0.123254 0.308378
vt 0.128535 0.322581
vt 0.113558 0.334943
vt 0.127227 0.326285
vt 0.122779 0.332246
vt 0.095196 0.454719
vt 0.113396 0.444338
vt 0.119726 0.443110
vt 0.121837 0.333030
vt 0.121775 0.442139
vt 0.119940 0.333647
vt 0.122861 0.440920
vt 0.127140 0.435052
vt 0.128372 0.431340
vt 0.119880 0.415628
vt 0.128349 0.426783
vt 0.127072 0.423055
vt 0.108010 0.305773
vt 0.105889 0.306537
vt 0.098345 0.320005
vt 0.108284 0.443624
vt 0.106141 0.442853
vt 0.098481 0.429358
vt 0.099873 0.327151
vt 0.101787 0.310221
vt 0.100097 0.312041
vt 0.102005 0.439164
vt 0.100294 0.437340
vt 0.099755 0.312854
vt 0.099938 0.436520
vt 0.100254 0.327986
vt 0.101995 0.329811
vt 0.099967 0.422199
vt 0.106186 0.333478
vt 0.100327 0.421373
vt 0.102048 0.419548
vt 0.106212 0.415864
vn 0.2680 -0.6617 -0.7002
vn 0.2680 -0.3304 -0.9050
vn -0.7779 -0.3304 -0.5346
vn 0.5831 -0.1256 -0.8026
vn -0.5831 -0.1256 -0.8026
vn 0.6284 0.6617 -0.4089
vn -0.7488 0.6617 -0.0385
vn -0.1947 0.6617 -0.7240
vn -0.1947 0.9435 -0.2680
vn -0.3568 0.7947 -0.4911
vn -0.6284 0.6617 -0.4089
vn 0.1947 0.6617 -0.7240
vn -0.3151 0.3304 -0.8897
vn -0.5773 0.1876 -0.7947
vn -0.7488 0.3304 -0.5746
vn 0.7488 0.3304 -0.5746
vn 0.5773 0.1876 -0.7947
vn 0.3151 0.3304 -0.8897
vn -0.9435 0.1256 -0.3066
vn -0.9342 -0.1876 -0.3035
vn -0.9435 -0.3304 -0.0247
vn 0.7779 -0.3304 -0.5346
vn 0.0000 0.1256 -0.9921
vn 0.0000 -0.1876 -0.9822
vn -0.2680 -0.3304 -0.9050
vn -0.5831 -0.6617 -0.4713
vn -0.5773 -0.7947 -0.1876
vn -0.2680 -0.6617 -0.7002
vn 0.0000 -0.7947 -0.6071
vn 0.0000 -0.9435 -0.3313
vn 0.5831 -0.6617 -0.4713
vn 0.7488 0.6617 -0.0385
vn 0.1947 0.9435 -0.2680
vn 0.3568 0.7947 -0.4911
vn 0.9435 0.1256 -0.3066
vn 0.9342 -0.1876 -0.3035
vn 0.9435 -0.3304 -0.0247
vn 0.5773 -0.7947 -0.1876
vn 0.0000 0.0000 -1.0000
vn 1.0000 0.0000 -0.0000
vn 0.0000 1.0000 -0.0000
vn 0.9696 -0.2446 0.0000
vn 0.2446 0.9696 0.0000
vn -0.9696 -0.2446 0.0000
vn -0.2446 0.9696 0.0000
vn 0.0000 0.0000 1.0000
vn -1.0000 0.0000 0.0000
vn 0.0000 -1.0000 0.0000
vn 0.9696 0.2446 0.0000
vn -0.9696 0.2446 0.0000
vn 0.2446 -0.9696 0.0000
vn -0.2446 -0.9696 0.0000
vn -0.3151 -0.9435 -0.1024
vn 0.3151 -0.9435 -0.1024
vn 0.7488 -0.6617 0.0385
vn -0.7488 -0.6617 0.0385
vn -0.9435 0.3304 0.0247
vn 0.9435 0.3304 0.0247
s off
f 1/1/1 6/2/1 8/3/1
f 1/1/2 8/3/2 11/4/2
f 2/5/3 10/6/3 14/7/3
f 1/1/4 11/4/4 13/8/4
f 2/5/5 14/7/5 12/9/5
f 15/10/6 72/11/6 3/12/6
f 4/13/7 95/14/7 100/15/7
f 5/16/8 16/17/8 17/18/8
f 17/18/9 67/19/9 68/20/9
f 16/17/10 67/19/10 17/18/10
f 16/17/11 100/15/11 73/21/11
f 15/10/12 5/16/12 17/18/12
f 12/9/13 16/17/13 5/16/13
f 12/9/14 14/7/14 16/17/14
f 14/7/15 4/13/15 16/17/15
f 13/8/16 15/10/16 3/12/16
f 13/8/17 11/4/17 15/10/17
f 11/4/18 5/16/18 15/10/18
f 14/7/19 96/22/19 4/13/19
f 14/7/20 99/23/20 97/24/20
f 10/6/21 98/25/21 99/23/21
f 7/26/22 1/1/22 13/8/22
f 11/4/23 12/9/23 5/16/23
f 11/4/24 8/3/24 12/9/24
f 8/3/25 2/5/25 12/9/25
f 9/27/26 10/6/26 2/5/26
f 9/27/27 80/28/27 10/6/27
f 8/3/28 9/27/28 2/5/28
f 8/3/29 6/2/29 9/27/29
f 82/29/30 9/27/30 6/2/30
f 6/2/31 1/1/31 7/26/31
f 18/30/28 25/31/28 23/32/28
f 18/30/25 28/33/25 25/31/25
f 19/34/22 31/35/22 27/36/22
f 18/30/5 30/37/5 28/33/5
f 19/34/4 29/38/4 31/35/4
f 107/39/11 32/40/11 20/41/11
f 21/42/32 89/43/32 90/44/32
f 22/45/12 34/46/12 33/47/12
f 34/46/33 101/48/33 84/49/33
f 84/49/34 33/47/34 34/46/34
f 33/47/6 89/43/6 21/42/6
f 32/40/8 34/46/8 22/45/8
f 29/38/18 22/45/18 33/47/18
f 29/38/17 33/47/17 31/35/17
f 31/35/16 33/47/16 21/42/16
f 30/37/15 20/41/15 32/40/15
f 30/37/14 32/40/14 28/33/14
f 28/33/13 32/40/13 22/45/13
f 31/35/35 92/50/35 93/51/35
f 31/35/36 94/52/36 27/36/36
f 27/36/37 94/52/37 91/53/37
f 24/54/3 30/37/3 18/30/3
f 28/33/23 22/45/23 29/38/23
f 28/33/24 29/38/24 25/31/24
f 25/31/2 29/38/2 19/34/2
f 26/55/31 19/34/31 27/36/31
f 26/55/38 86/56/38 87/57/38
f 25/31/1 19/34/1 26/55/1
f 25/31/29 26/55/29 23/32/29
f 26/55/30 102/58/30 23/32/30
f 23/32/26 24/54/26 18/30/26
f 38/59/39 35/60/39 37/61/39
f 36/62/40 63/63/40 35/60/40
f 66/64/41 36/65/41 38/66/41
f 42/67/39 39/68/39 41/69/39
f 40/70/42 56/71/42 39/68/42
f 57/72/43 40/70/43 42/67/43
f 43/73/39 46/74/39 45/75/39
f 60/76/44 44/77/44 43/73/44
f 44/77/45 61/78/45 46/74/45
f 48/79/46 49/80/46 47/81/46
f 50/82/47 53/83/47 49/80/47
f 53/83/39 64/84/39 51/85/39
f 52/86/40 47/81/40 51/85/40
f 53/83/48 47/81/48 49/80/48
f 50/87/41 52/88/41 54/89/41
f 59/90/49 46/74/49 61/91/49
f 57/92/50 41/69/50 55/93/50
f 57/94/39 61/95/39 54/96/39
f 60/97/51 45/98/51 59/99/51
f 55/100/52 39/68/52 56/101/52
f 66/102/47 37/61/47 64/103/47
f 64/104/48 35/60/48 63/105/48
f 66/106/39 86/107/39 91/108/39
f 112/109/20 30/37/20 24/54/20
f 70/110/34 15/10/34 17/18/34
f 77/111/37 76/112/37 7/26/37
f 109/113/21 112/109/21 24/54/21
f 81/114/53 79/115/53 9/27/53
f 68/20/33 70/110/33 17/18/33
f 87/57/54 88/116/54 26/55/54
f 72/11/32 71/117/32 3/12/32
f 96/118/39 93/119/39 92/120/39
f 74/121/35 13/8/35 3/12/35
f 110/122/19 30/37/19 111/123/19
f 76/112/55 78/124/55 7/26/55
f 91/53/55 86/56/55 27/36/55
f 106/125/56 109/113/56 24/54/56
f 96/22/57 95/14/57 4/13/57
f 106/125/27 23/32/27 104/126/27
f 83/127/54 82/29/54 6/2/54
f 110/122/57 108/128/57 20/41/57
f 77/111/36 13/8/36 75/129/36
f 78/124/38 6/2/38 7/26/38
f 103/130/9 101/48/9 34/46/9
f 108/128/7 107/39/7 20/41/7
f 102/58/53 104/126/53 23/32/53
f 90/44/58 92/50/58 21/42/58
f 71/117/58 74/121/58 3/12/58
f 103/130/10 32/40/10 105/131/10
f 80/28/56 98/25/56 10/6/56
f 15/10/6 69/132/6 72/11/6
f 16/17/10 73/21/10 67/19/10
f 16/17/11 4/13/11 100/15/11
f 14/7/19 97/24/19 96/22/19
f 14/7/20 10/6/20 99/23/20
f 9/27/27 79/115/27 80/28/27
f 82/29/30 81/114/30 9/27/30
f 107/39/11 105/131/11 32/40/11
f 84/49/34 85/133/34 33/47/34
f 33/47/6 85/133/6 89/43/6
f 31/35/35 21/42/35 92/50/35
f 31/35/36 93/51/36 94/52/36
f 26/55/38 27/36/38 86/56/38
f 26/55/30 88/116/30 102/58/30
f 38/59/39 36/62/39 35/60/39
f 36/62/40 65/134/40 63/63/40
f 66/64/41 65/135/41 36/65/41
f 42/67/39 40/70/39 39/68/39
f 40/70/42 58/136/42 56/71/42
f 57/72/43 58/137/43 40/70/43
f 43/73/39 44/77/39 46/74/39
f 60/76/44 62/138/44 44/77/44
f 44/77/45 62/139/45 61/78/45
f 48/79/46 50/87/46 49/80/46
f 50/82/47 54/140/47 53/83/47
f 53/83/39 66/106/39 64/84/39
f 64/84/39 63/141/39 51/85/39
f 52/86/40 48/142/40 47/81/40
f 53/83/48 51/85/48 47/81/48
f 50/87/41 48/79/41 52/88/41
f 59/90/49 45/75/49 46/74/49
f 57/92/50 42/67/50 41/69/50
f 54/96/39 52/143/39 57/94/39
f 52/143/39 58/144/39 57/94/39
f 57/94/39 55/145/39 59/146/39
f 61/95/39 62/147/39 54/96/39
f 57/94/39 59/146/39 61/95/39
f 60/97/51 43/148/51 45/98/51
f 55/100/52 41/69/52 39/68/52
f 66/102/47 38/59/47 37/61/47
f 64/104/48 37/61/48 35/60/48
f 51/85/39 63/141/39 83/149/39
f 63/141/39 65/150/39 82/151/39
f 83/149/39 63/141/39 82/151/39
f 58/144/39 52/143/39 51/85/39
f 77/152/39 75/153/39 56/154/39
f 56/154/39 58/144/39 51/85/39
f 77/152/39 56/154/39 51/85/39
f 76/155/39 77/152/39 51/85/39
f 78/156/39 76/155/39 51/85/39
f 83/149/39 78/156/39 51/85/39
f 82/151/39 65/150/39 81/157/39
f 65/150/39 66/106/39 97/158/39
f 81/157/39 65/150/39 79/159/39
f 79/159/39 65/150/39 80/160/39
f 53/83/39 54/96/39 62/147/39
f 60/161/39 111/162/39 112/163/39
f 53/83/39 62/147/39 60/161/39
f 80/160/39 65/150/39 98/164/39
f 53/83/39 60/161/39 112/163/39
f 53/83/39 112/163/39 109/165/39
f 98/164/39 65/150/39 99/166/39
f 53/83/39 109/165/39 106/167/39
f 53/83/39 106/167/39 104/168/39
f 99/166/39 65/150/39 97/158/39
f 66/106/39 53/83/39 104/168/39
f 66/106/39 104/168/39 102/169/39
f 93/119/39 97/158/39 66/106/39
f 94/170/39 93/119/39 66/106/39
f 66/106/39 102/169/39 88/171/39
f 66/106/39 88/171/39 87/172/39
f 91/108/39 94/170/39 66/106/39
f 66/106/39 87/172/39 86/107/39
f 112/109/20 111/123/20 30/37/20
f 70/110/34 69/132/34 15/10/34
f 56/154/39 75/153/39 74/173/39
f 56/154/39 74/173/39 71/174/39
f 59/146/39 55/145/39 96/118/39
f 55/145/39 56/154/39 68/175/39
f 110/176/39 111/162/39 60/161/39
f 108/177/39 110/176/39 60/161/39
f 60/161/39 59/146/39 101/178/39
f 55/145/39 68/175/39 67/179/39
f 56/154/39 71/174/39 72/180/39
f 56/154/39 72/180/39 69/181/39
f 107/182/39 108/177/39 60/161/39
f 105/183/39 107/182/39 60/161/39
f 56/154/39 69/181/39 70/184/39
f 56/154/39 70/184/39 68/175/39
f 103/185/39 105/183/39 60/161/39
f 101/178/39 103/185/39 60/161/39
f 55/145/39 67/179/39 73/186/39
f 55/145/39 73/186/39 100/187/39
f 101/178/39 59/146/39 84/188/39
f 55/145/39 100/187/39 95/189/39
f 84/188/39 59/146/39 85/190/39
f 55/145/39 95/189/39 96/118/39
f 85/190/39 59/146/39 89/191/39
f 89/191/39 59/146/39 90/192/39
f 96/118/39 97/158/39 93/119/39
f 59/146/39 96/118/39 92/120/39
f 90/192/39 59/146/39 92/120/39
f 74/121/35 75/129/35 13/8/35
f 110/122/19 20/41/19 30/37/19
f 106/125/27 24/54/27 23/32/27
f 77/111/36 7/26/36 13/8/36
f 78/124/38 83/127/38 6/2/38
f 103/130/10 34/46/10 32/40/10
