# Blender v2.80 (sub 75) OBJ File: 'game.blend'
# www.blender.org
o point_Cube.015
v -0.757194 0.216757 0.472354
v -0.757194 0.366757 0.622354
v -0.907194 0.366757 0.472354
v -0.757194 0.534950 0.622354
v -0.757194 0.684950 0.472354
v -0.907194 0.534950 0.472354
v -0.757194 0.216757 -0.472354
v -0.907194 0.366757 -0.472354
v -0.757194 0.366757 -0.622354
v -0.757194 0.684950 -0.472354
v -0.757194 0.534950 -0.622354
v -0.907194 0.534950 -0.472354
v 0.757194 0.216757 0.472354
v 0.907194 0.366757 0.472354
v 0.757194 0.366757 0.622354
v 0.757194 0.684950 0.472354
v 0.757194 0.534950 0.622354
v 0.907194 0.534950 0.472354
v 0.757194 0.366757 -0.622354
v 0.907194 0.366757 -0.472354
v 0.757194 0.216757 -0.472354
v 0.757194 0.534950 -0.622354
v 0.757194 0.684950 -0.472354
v 0.907194 0.534950 -0.472354
vt 0.767871 0.200075
vt 0.791972 0.000000
vt 0.816680 0.193854
vt 0.408014 0.043882
vt 0.684383 0.486906
vt 0.408014 0.486906
vt 0.043882 0.043882
vt 0.320250 0.486906
vt 0.043882 0.486906
vt 0.775717 0.261635
vt 0.864132 0.566166
vt 0.815323 0.572387
vt 1.000000 0.566166
vt 0.911584 0.261635
vt 0.960394 0.255414
vt 1.000000 0.219086
vt 0.952548 0.193854
vt 0.864132 0.236403
vt 0.903738 0.200075
vt 0.093087 0.667755
vt 0.062058 0.623874
vt 0.124116 0.623874
vt 0.093087 0.530788
vt 0.124116 0.574670
vt 0.062058 0.574670
vt 0.031029 0.667755
vt 0.000000 0.623874
vt 0.062058 0.623874
vt 0.031029 0.530788
vt 0.062058 0.574670
vt 0.000000 0.574670
vt 0.824526 0.255414
vt 0.864132 0.219086
vt 0.728264 0.236403
vt 0.043882 0.530788
vt 0.408014 0.530788
vt 0.320250 0.000000
vt 0.320250 0.043882
vt 0.684382 0.000000
vt 0.684382 0.043882
vt 0.364132 0.043882
vt 0.364132 0.486906
vt 0.364132 0.486906
vt 0.364132 0.043882
vt 0.728264 0.486906
vt 0.000000 0.043882
vt 0.000000 0.486906
vt 0.879031 0.006221
vt 0.927840 0.000000
vt 0.743163 0.006221
vt 0.951191 0.572387
vt 0.320250 0.530788
vt 0.684383 0.530788
vt 0.043882 0.000000
vt 0.408014 0.000000
vt 0.728264 0.043882
vn 1.0000 0.0000 0.0000
vn 0.0000 1.0000 0.0000
vn 0.0000 -1.0000 0.0000
vn 0.0000 0.0000 -1.0000
vn 0.0000 0.0000 1.0000
vn -0.5774 -0.5774 0.5774
vn -0.5774 0.5774 0.5774
vn -0.5774 -0.5774 -0.5774
vn -0.5774 0.5774 -0.5774
vn 0.5774 -0.5774 0.5774
vn 0.5774 0.5774 0.5774
vn 0.5774 -0.5774 -0.5774
vn 0.5774 0.5774 -0.5774
vn -0.7071 -0.7071 0.0000
vn -0.7071 0.0000 0.7071
vn -0.7071 0.7071 0.0000
vn -0.7071 0.0000 -0.7071
vn 0.7071 0.0000 -0.7071
vn 0.7071 -0.7071 0.0000
vn 0.7071 0.7071 0.0000
vn 0.7071 0.0000 0.7071
vn 0.0000 0.7071 0.7071
vn 0.0000 -0.7071 0.7071
vn 0.0000 0.7071 -0.7071
vn 0.0000 -0.7071 -0.7071
vn -1.0000 0.0000 0.0000
s off
f 24/1/1 14/2/1 20/3/1
f 16/4/2 10/5/2 5/6/2
f 21/7/3 1/8/3 7/9/3
f 22/10/4 9/11/4 11/12/4
f 15/13/5 4/14/5 2/15/5
f 1/16/6 2/15/6 3/17/6
f 4/14/7 5/18/7 6/19/7
f 7/20/8 8/21/8 9/22/8
f 10/23/9 11/24/9 12/25/9
f 13/26/10 14/27/10 15/28/10
f 16/29/11 17/30/11 18/31/11
f 19/32/12 20/3/12 21/33/12
f 22/10/13 23/34/13 24/1/13
f 1/8/14 8/35/14 7/9/14
f 4/14/15 3/17/15 2/15/15
f 10/5/16 6/36/16 5/6/16
f 9/22/17 12/25/17 11/24/17
f 20/3/18 22/10/18 24/1/18
f 21/7/19 14/37/19 13/38/19
f 16/4/20 24/39/20 23/40/20
f 15/28/21 18/31/21 17/30/21
f 17/41/22 5/6/22 4/42/22
f 2/43/23 13/38/23 15/44/23
f 23/40/24 11/45/24 10/5/24
f 19/46/25 7/9/25 9/47/25
f 3/17/26 12/48/26 8/49/26
f 24/1/1 18/50/1 14/2/1
f 16/4/2 23/40/2 10/5/2
f 21/7/3 13/38/3 1/8/3
f 22/10/4 19/32/4 9/11/4
f 15/13/5 17/51/5 4/14/5
f 1/8/14 3/52/14 8/35/14
f 4/14/15 6/19/15 3/17/15
f 10/5/16 12/53/16 6/36/16
f 9/22/17 8/21/17 12/25/17
f 20/3/18 19/32/18 22/10/18
f 21/7/19 20/54/19 14/37/19
f 16/4/20 18/55/20 24/39/20
f 15/28/21 14/27/21 18/31/21
f 17/41/22 16/4/22 5/6/22
f 2/43/23 1/8/23 13/38/23
f 23/40/24 22/56/24 11/45/24
f 19/46/25 21/7/25 7/9/25
f 3/17/26 6/19/26 12/48/26
