# Blender v2.80 (sub 75) OBJ File: 'game.blend'
# www.blender.org
o point_Cube.015
v -0.757194 0.216757 0.472354
v -0.757194 0.366757 0.622354
v -0.907194 0.366757 0.472354
v -0.757194 0.534950 0.622354
v -0.757194 0.684950 0.472354
v -0.907194 0.534950 0.472354
v -0.757194 0.216757 -0.472354
v -0.907194 0.366757 -0.472354
v -0.757194 0.366757 -0.622354
v -0.757194 0.684950 -0.472354
v -0.757194 0.534950 -0.622354
v -0.907194 0.534950 -0.472354
v 0.757194 0.216757 0.472354
v 0.907194 0.366757 0.472354
v 0.757194 0.366757 0.622354
v 0.757194 0.684950 0.472354
v 0.757194 0.534950 0.622354
v 0.907194 0.534950 0.472354
v 0.757194 0.366757 -0.622354
v 0.907194 0.366757 -0.472354
v 0.757194 0.216757 -0.472354
v 0.757194 0.534950 -0.622354
v 0.757194 0.684950 -0.472354
v 0.907194 0.534950 -0.472354
vt 0.000000 0.000000
vt 0.000000 0.000000
vt 0.000000 0.000000
vt 0.000000 0.000000
vt 0.000000 0.000000
vt 0.000000 0.000000
vt 0.000000 0.000000
vt 0.000000 0.000000
vt 0.000000 0.000000
vt 0.000000 0.000000
vt 0.000000 0.000000
vt 0.000000 0.000000
vt 0.000000 0.000000
vt 0.000000 0.000000
vt 0.000000 0.000000
vt 0.000000 0.000000
vt 0.000000 0.000000
vt 0.000000 0.000000
vt 0.000000 0.000000
vt 0.000000 0.000000
vt 0.000000 0.000000
vt 0.000000 0.000000
vt 0.000000 0.000000
vt 0.000000 0.000000
vn 1.0000 0.0000 0.0000
vn 0.0000 1.0000 0.0000
vn 0.0000 -1.0000 0.0000
vn 0.0000 0.0000 -1.0000
vn 0.0000 0.0000 1.0000
vn -0.5774 -0.5774 0.5774
vn -0.5774 0.5774 0.5774
vn -0.5774 -0.5774 -0.5774
vn -0.5774 0.5774 -0.5774
vn 0.5774 -0.5774 0.5774
vn 0.5774 0.5774 0.5774
vn 0.5774 -0.5774 -0.5774
vn 0.5774 0.5774 -0.5774
vn -0.7071 -0.7071 0.0000
vn -0.7071 0.0000 0.7071
vn -0.7071 0.7071 0.0000
vn -0.7071 0.0000 -0.7071
vn 0.7071 0.0000 -0.7071
vn 0.7071 -0.7071 0.0000
vn 0.7071 0.7071 0.0000
vn 0.7071 0.0000 0.7071
vn 0.0000 0.7071 0.7071
vn 0.0000 -0.7071 0.7071
vn 0.0000 0.7071 -0.7071
vn 0.0000 -0.7071 -0.7071
vn -1.0000 0.0000 0.0000
s off
f 24/1/1 14/2/1 20/3/1
f 16/4/2 10/5/2 5/6/2
f 21/7/3 1/8/3 7/9/3
f 22/10/4 9/11/4 11/12/4
f 15/13/5 4/14/5 2/15/5
f 1/8/6 2/15/6 3/16/6
f 4/14/7 5/6/7 6/17/7
f 7/9/8 8/18/8 9/11/8
f 10/5/9 11/12/9 12/19/9
f 13/20/10 14/2/10 15/13/10
f 16/4/11 17/21/11 18/22/11
f 19/23/12 20/3/12 21/7/12
f 22/10/13 23/24/13 24/1/13
f 1/8/14 8/18/14 7/9/14
f 4/14/15 3/16/15 2/15/15
f 10/5/16 6/17/16 5/6/16
f 9/11/17 12/19/17 11/12/17
f 20/3/18 22/10/18 24/1/18
f 21/7/19 14/2/19 13/20/19
f 16/4/20 24/1/20 23/24/20
f 15/13/21 18/22/21 17/21/21
f 17/21/22 5/6/22 4/14/22
f 2/15/23 13/20/23 15/13/23
f 23/24/24 11/12/24 10/5/24
f 19/23/25 7/9/25 9/11/25
f 3/16/26 12/19/26 8/18/26
f 24/1/1 18/22/1 14/2/1
f 16/4/2 23/24/2 10/5/2
f 21/7/3 13/20/3 1/8/3
f 22/10/4 19/23/4 9/11/4
f 15/13/5 17/21/5 4/14/5
f 1/8/14 3/16/14 8/18/14
f 4/14/15 6/17/15 3/16/15
f 10/5/16 12/19/16 6/17/16
f 9/11/17 8/18/17 12/19/17
f 20/3/18 19/23/18 22/10/18
f 21/7/19 20/3/19 14/2/19
f 16/4/20 18/22/20 24/1/20
f 15/13/21 14/2/21 18/22/21
f 17/21/22 16/4/22 5/6/22
f 2/15/23 1/8/23 13/20/23
f 23/24/24 22/10/24 11/12/24
f 19/23/25 21/7/25 7/9/25
f 3/16/26 6/17/26 12/19/26
