# Blender v2.80 (sub 75) OBJ File: ''
# www.blender.org
o Plane
v 3.000000 -0.000001 12.000000
v -3.000000 0.000001 -12.000000
v -3.000000 -0.000001 12.000000
v 3.000000 0.000001 -12.000000
v 3.000000 -0.500001 12.000000
v -3.000000 -0.500001 12.000000
v -3.000000 -0.499999 -12.000000
v 3.000000 -0.499999 -12.000000
vt 0.500000 1.000000
vt 0.250000 0.000000
vt 0.500000 0.000000
vt 0.541667 0.250000
vt 0.562500 0.000000
vt 0.562500 0.250000
vt 0.520834 1.000000
vt 0.541667 0.000000
vt 0.541667 1.000000
vt 0.562500 0.250000
vt 0.541667 0.500000
vt 0.541667 0.250000
vt 0.500000 1.000000
vt 0.520833 0.000000
vt 0.520834 1.000000
vt 0.250000 0.000000
vt 0.000000 1.000000
vt 0.000000 0.000000
vt 0.250000 1.000000
vt 0.541667 0.000000
vt 0.520834 0.000000
vt 0.562500 0.500000
vt 0.500000 0.000000
vt 0.250000 1.000000
vn 0.0000 1.0000 0.0000
vn 0.0000 0.0000 1.0000
vn 1.0000 0.0000 0.0000
vn 0.0000 0.0000 -1.0000
vn -1.0000 0.0000 0.0000
vn 0.0000 -1.0000 -0.0000
s off
f 4/1/1 3/2/1 1/3/1
f 6/4/2 1/5/2 3/6/2
f 5/7/3 4/8/3 1/9/3
f 8/10/4 2/11/4 4/12/4
f 7/13/5 3/14/5 2/15/5
f 6/16/6 8/17/6 5/18/6
f 4/1/1 2/19/1 3/2/1
f 6/4/2 5/20/2 1/5/2
f 5/7/3 8/21/3 4/8/3
f 8/10/4 7/22/4 2/11/4
f 7/13/5 6/23/5 3/14/5
f 6/16/6 7/24/6 8/17/6
